<svg width="100%" height="100%" fill="none" xmlns="http://www.w3.org/2000/svg">

    <!--SOCIAL ICON-->
    <g id="GitHub">
        <rect x="3" y="4" width="24" height="25" rx="14" fill="white"/>
        <path fill-rule="evenodd" clip-rule="evenodd"
              d="M15 0C6.7125 0 0 6.7125 0 15C0 21.6375 4.29375 27.2437 10.2563 29.2313C11.0063 29.3625 11.2875 28.9125 11.2875 28.5188C11.2875 28.1625 11.2688 26.9813 11.2688 25.725C7.5 26.4188 6.525 24.8062 6.225 23.9625C6.05625 23.5312 5.325 22.2 4.6875 21.8438C4.1625 21.5625 3.4125 20.8687 4.66875 20.85C5.85 20.8313 6.69375 21.9375 6.975 22.3875C8.325 24.6562 10.4812 24.0187 11.3438 23.625C11.475 22.65 11.8688 21.9937 12.3 21.6187C8.9625 21.2437 5.475 19.95 5.475 14.2125C5.475 12.5813 6.05625 11.2313 7.0125 10.1813C6.8625 9.80625 6.3375 8.26875 7.1625 6.20625C7.1625 6.20625 8.41875 5.8125 11.2875 7.74375C12.4875 7.40625 13.7625 7.2375 15.0375 7.2375C16.3125 7.2375 17.5875 7.40625 18.7875 7.74375C21.6562 5.79375 22.9125 6.20625 22.9125 6.20625C23.7375 8.26875 23.2125 9.80625 23.0625 10.1813C24.0188 11.2313 24.6 12.5625 24.6 14.2125C24.6 19.9688 21.0938 21.2437 17.7563 21.6187C18.3 22.0875 18.7688 22.9875 18.7688 24.3937C18.7688 26.4 18.75 28.0125 18.75 28.5188C18.75 28.9125 19.0312 29.3813 19.7812 29.2313C22.759 28.2259 25.3465 26.3121 27.1796 23.7592C29.0127 21.2063 29.9991 18.1429 30 15C30 6.7125 23.2875 0 15 0Z"
              fill="#42446E"/>
    </g>

    <g id="Telegram">
        <rect x="5" y="5" width="20" height="20" rx="14" fill="white"/>
        <path d="M27 15.5C27 18.55 25.7884 21.4751 23.6317 23.6317C21.4751 25.7884 18.55 27 15.5 27C12.45 27 9.52494 25.7884 7.36827 23.6317C5.2116 21.4751 4 18.55 4 15.5C4 12.45 5.2116 9.52494 7.36827 7.36827C9.52494 5.2116 12.45 4 15.5 4C18.55 4 21.4751 5.2116 23.6317 7.36827C25.7884 9.52494 27 12.45 27 15.5ZM15.9126 12.4899C14.7942 12.9556 12.5574 13.9187 9.20519 15.3792C8.66181 15.5949 8.37575 15.8076 8.34987 16.0146C8.30675 16.3639 8.74519 16.5019 9.34175 16.6903L9.59331 16.7693C10.1798 16.9605 10.9704 17.1833 11.3801 17.1919C11.7539 17.2006 12.1693 17.0482 12.6279 16.7319C15.7602 14.6174 17.3774 13.5493 17.478 13.5263C17.5499 13.5091 17.6505 13.4889 17.7166 13.5493C17.7842 13.6083 17.777 13.7218 17.7698 13.752C17.7267 13.9374 16.006 15.5359 15.1162 16.3639C14.8387 16.6227 14.6418 16.8053 14.6016 16.8469C14.5129 16.9375 14.4228 17.0267 14.3313 17.1143C13.7851 17.6404 13.3768 18.0343 14.3529 18.6783C14.8229 18.9888 15.1996 19.2432 15.5747 19.4991C15.983 19.778 16.3912 20.0554 16.9202 20.4033C17.0539 20.4896 17.1833 20.583 17.3084 20.6721C17.7842 21.0114 18.214 21.3161 18.7416 21.2673C19.0492 21.2385 19.3669 20.951 19.5279 20.0885C19.9088 18.0516 20.6578 13.6399 20.8302 11.8214C20.8408 11.6703 20.8345 11.5184 20.8116 11.3686C20.798 11.2478 20.7395 11.1364 20.6477 11.0567C20.5169 10.9664 20.361 10.9196 20.2021 10.923C19.7708 10.9302 19.1052 11.1616 15.9126 12.4899Z"
              fill="#42446E"/>
    </g>

    <g id="LinkedIn">
        <rect x="2" y="2" width="28" height="28" rx="14" fill="#42446E"/>
        <path d="M12.6186 9.69215C12.6186 10.6267 11.8085 11.3843 10.8093 11.3843C9.81004 11.3843 9 10.6267 9 9.69215C9 8.7576 9.81004 8 10.8093 8C11.8085 8 12.6186 8.7576 12.6186 9.69215Z"
              fill="white"/>
        <path d="M9.24742 12.6281H12.3402V22H9.24742V12.6281Z" fill="white"/>
        <path d="M17.3196 12.6281H14.2268V22H17.3196C17.3196 22 17.3196 19.0496 17.3196 17.2049C17.3196 16.0976 17.6977 14.9855 19.2062 14.9855C20.911 14.9855 20.9008 16.4345 20.8928 17.5571C20.8824 19.0244 20.9072 20.5219 20.9072 22H24V17.0537C23.9738 13.8954 23.1508 12.4401 20.4433 12.4401C18.8354 12.4401 17.8387 13.1701 17.3196 13.8305V12.6281Z"
              fill="white"/>
    </g>

    <g id="Gmail">
        <rect x="5" y="10" width="22" height="13" fill="white"/>
        <path d="M5.07187 9.20292C5.2168 8.57709 5.57307 8.01832 6.08232 7.6181C6.59158 7.21789 7.22365 6.99996 7.875 7H25.125C25.7764 6.99996 26.4084 7.21789 26.9177 7.6181C27.4269 8.01832 27.7832 8.57709 27.9281 9.20292L16.5 16.0865L5.07187 9.20292ZM5 10.8207V20.8847L13.3418 15.8442L5 10.8207ZM14.7189 16.6758L5.27456 22.3807C5.50791 22.8657 5.87619 23.2753 6.33656 23.5619C6.79693 23.8486 7.33044 24.0005 7.875 24H25.125C25.6695 24.0001 26.2028 23.8479 26.6629 23.561C27.123 23.274 27.491 22.8643 27.724 22.3793L18.2796 16.6744L16.5 17.7468L14.7189 16.6744V16.6758ZM19.6582 15.8457L28 20.8847V10.8207L19.6582 15.8442V15.8457Z"
              fill="#42446E"/>
    </g>

    <!--SKILLS ICON-->
    <g id="React">
        <path d="M93.1056 32.7027C91.9031 32.2887 90.6904 31.9051 89.4687 31.5523C89.6739 30.7106 89.8628 29.8792 90.0305 29.0623C92.7838 15.6483 90.9839 4.84178 84.8361 1.28375C78.9416 -2.12722 69.3016 1.42949 59.5659 9.93342C58.6064 10.773 57.6682 11.6368 56.7521 12.524C56.1389 11.934 55.5149 11.3556 54.8803 10.7888C44.6767 1.69616 34.4493 -2.13608 28.3081 1.43215C22.4189 4.85374 20.675 15.0127 23.1538 27.7254C23.4004 28.9844 23.6788 30.237 23.9888 31.4819C22.5411 31.8947 21.1442 32.3342 19.8073 32.8019C7.84441 36.9881 0.204742 43.5483 0.204742 50.3529C0.204742 57.3808 8.40627 64.43 20.8661 68.7043C21.8763 69.0495 22.8948 69.3692 23.9209 69.6634C23.5876 71.0042 23.2918 72.354 23.0337 73.7114C20.6706 86.2035 22.516 96.1223 28.3893 99.5222C34.4555 103.033 44.637 99.4247 54.5506 90.7268C55.3545 90.0196 56.1407 89.2925 56.9084 88.546C57.9004 89.5066 58.9189 90.4393 59.9627 91.343C69.566 99.6365 79.0501 102.985 84.9177 99.5762C90.9782 96.055 92.948 85.3995 90.3907 72.4356C90.1892 71.42 89.9633 70.4094 89.7132 69.4047C90.4282 69.1921 91.13 68.9732 91.8141 68.7455C104.767 64.4384 113.195 57.4747 113.195 50.3529C113.195 43.5234 105.309 36.919 93.1056 32.7027ZM90.2962 64.1474C89.6783 64.3525 89.0445 64.5505 88.3983 64.7432C86.9683 60.1995 85.0386 55.3684 82.6769 50.3764C84.9305 45.5036 86.786 40.734 88.1759 36.22C89.3318 36.5558 90.4534 36.9097 91.5347 37.2832C101.991 40.8961 108.369 46.2372 108.369 50.3529C108.369 54.7367 101.481 60.4277 90.2962 64.1474ZM85.6557 73.3765C86.7865 79.1087 86.9476 84.2916 86.1986 88.3435C85.5259 91.9844 84.1727 94.4115 82.499 95.3839C78.9385 97.4526 71.3235 94.7637 63.111 87.6706C62.1401 86.8305 61.1927 85.9634 60.2699 85.0703C63.4539 81.5756 66.6357 77.5131 69.7412 73.0008C75.2036 72.5144 80.3641 71.7188 85.0439 70.6331C85.2694 71.5426 85.4734 72.4573 85.6557 73.3765ZM38.7257 95.0264C35.2468 96.2592 32.4759 96.2946 30.8009 95.3254C27.2369 93.2624 25.7552 85.298 27.7762 74.6151C28.0165 73.3527 28.2915 72.0972 28.6011 70.8502C33.2293 71.8779 38.3523 72.6168 43.8275 73.0624C46.9542 77.4776 50.2278 81.5358 53.5271 85.0894C52.8259 85.7703 52.1082 86.4338 51.3745 87.0793C46.9904 90.9252 42.5974 93.654 38.7257 95.0264ZM22.4277 64.1204C16.9181 62.2302 12.368 59.7738 9.24929 57.0933C6.44659 54.6848 5.032 52.2932 5.032 50.3529C5.032 46.2234 11.1657 40.9564 21.3962 37.3766C22.6378 36.9425 23.9372 36.5327 25.2856 36.1482C26.6997 40.7641 28.5544 45.5904 30.7925 50.4707C28.5252 55.4233 26.6441 60.3267 25.2163 64.997C24.2797 64.7278 23.3499 64.4355 22.4277 64.1204ZM27.891 26.7947C25.7676 15.9031 27.1777 7.68706 30.7268 5.62497C34.5067 3.42867 42.8653 6.56011 51.6755 14.4115C52.25 14.9247 52.8152 15.4482 53.3708 15.9819C50.0879 19.52 46.8443 23.548 43.7454 27.9371C38.4313 28.4315 33.3445 29.2253 28.6678 30.2889C28.3797 29.131 28.1206 27.9661 27.891 26.7951V26.7947ZM76.6301 38.8739C75.5255 36.9589 74.3798 35.0679 73.194 33.2024C76.7991 33.66 80.2533 34.2673 83.4969 35.0098C82.5233 38.1425 81.3095 41.4175 79.8808 44.7753C78.8365 42.7867 77.7527 40.8191 76.6301 38.8739ZM56.7544 19.4443C58.9806 21.8652 61.2104 24.5678 63.4036 27.5003C58.9546 27.2894 54.4982 27.2886 50.0491 27.4977C52.2444 24.5922 54.4932 21.8931 56.7544 19.4443ZM36.751 38.9071C35.6425 40.8367 34.5789 42.792 33.5613 44.7713C32.1559 41.4255 30.9532 38.1355 29.9712 34.9584C33.1949 34.2346 36.6327 33.6427 40.2149 33.1935C39.0159 35.0704 37.8609 36.9754 36.751 38.9067V38.9071ZM40.3177 67.8569C36.6169 67.4423 33.1274 66.881 29.9045 66.1767C30.902 62.9429 32.1312 59.5829 33.567 56.1653C34.5887 58.1461 35.6567 60.1026 36.77 62.033C37.9149 64.0176 39.1004 65.9614 40.3177 67.8569ZM56.8876 81.6027C54.5996 79.1255 52.3177 76.3848 50.0892 73.4372C52.2528 73.5222 54.4583 73.5656 56.7001 73.5656C59.0031 73.5656 61.2797 73.5138 63.5205 73.4137C61.3203 76.4145 59.0989 79.1592 56.8876 81.6027ZM79.9263 55.9907C81.4366 59.446 82.7095 62.7883 83.7203 65.9667C80.4444 66.7171 76.9073 67.3214 73.1804 67.7701C74.3746 65.8699 75.5311 63.9461 76.6491 61.9998C77.7858 60.0214 78.8784 58.0179 79.9263 55.9907ZM72.468 59.5794C70.7564 62.5634 68.9487 65.4909 67.0475 68.357C63.6038 68.6018 60.1524 68.7234 56.7001 68.7216C53.1837 68.7216 49.7635 68.6118 46.47 68.3974C44.5192 65.5378 42.677 62.6053 40.9471 59.6059H40.9476C39.2259 56.6225 37.6177 53.5745 36.1265 50.4685C37.6139 47.3618 39.2172 44.3124 40.933 41.3267L40.9326 41.3271C42.6477 38.3407 44.4753 35.4206 46.4113 32.5734C49.7714 32.3182 53.2172 32.1853 56.6996 32.1853H56.7001C60.1984 32.1853 63.6485 32.3195 67.0078 32.5765C68.9243 35.4195 70.7402 38.3295 72.4521 41.301C74.1736 44.2801 75.7981 47.3147 77.3231 50.3999C75.8138 53.5166 74.1944 56.5783 72.468 59.5794ZM82.4253 5.48056C86.2087 7.67067 87.6802 16.5024 85.303 28.0842C85.1512 28.8231 84.9808 29.5757 84.7954 30.339C80.1072 29.2528 75.0169 28.4452 69.6874 27.9433C66.5828 23.506 63.3656 19.4717 60.1361 15.9792C60.9825 15.1604 61.849 14.3628 62.7349 13.5871C71.0768 6.30141 78.8732 3.42468 82.4253 5.48056ZM56.7001 40.2263C62.2724 40.2263 66.7898 44.7603 66.7898 50.3529C66.7898 55.9456 62.2724 60.4795 56.7001 60.4795C51.1278 60.4795 46.6104 55.9456 46.6104 50.3529C46.6104 44.7603 51.1278 40.2263 56.7001 40.2263Z"
              fill="#00D8FF"/>
    </g>


    <g id="Angular">
        <svg viewBox="0 0 32 32" fill="none" xmlns="http://www.w3.org/2000/svg">
            <g id="SVGRepo_bgCarrier" stroke-width="0"/>
            <g id="SVGRepo_tracerCarrier" stroke-linecap="round" stroke-linejoin="round"/>
            <g id="SVGRepo_iconCarrier">
                <path d="M16 2L3 7L5 24L16 30L27 24L29 7L16 2Z" fill="#DD0031"/>
                <path d="M16 2V30L27 24L29 7L16 2Z" fill="#C3002F"/>
                <path d="M15.9998 5.09375L7.87305 23.3638H10.9031L12.5368 19.2757H19.4348L21.0685 23.3638H24.0986L15.9998 5.09375ZM18.3736 16.7557H13.626L15.9998 11.0298L18.3736 16.7557Z"
                      fill="white"/>
            </g>
        </svg>
    </g>

    <g id="GraphQL">
        <svg viewBox="0 0 32 32" xmlns="http://www.w3.org/2000/svg" fill="#000000">
            <g id="SVGRepo_bgCarrier" stroke-width="0"/>
            <g id="SVGRepo_tracerCarrier" stroke-linecap="round" stroke-linejoin="round"/>
            <g id="SVGRepo_iconCarrier">
                <title>file_type_graphql</title>
                <rect x="-0.43" y="12.534" width="22.901" height="1.187"
                      transform="translate(-5.858 16.107) rotate(-59.999)" style="fill:#e10098"/>
                <rect x="4.545" y="21.162" width="22.902" height="1.187" style="fill:#e10098"/>
                <rect x="10.43" y="18.008" width="1.187" height="13.227"
                      transform="translate(-15.812 21.857) rotate(-59.999)" style="fill:#e10098"/>
                <rect x="20.381" y="0.771" width="1.187" height="13.227"
                      transform="translate(4.092 21.856) rotate(-59.999)" style="fill:#e10098"/>
                <rect x="4.412" y="6.787" width="13.227" height="1.187"
                      transform="translate(-2.213 6.502) rotate(-30.001)" style="fill:#e10098"/>
                <rect x="20.389" y="1.677" width="1.187" height="22.901"
                      transform="translate(-3.753 12.25) rotate(-30.001)" style="fill:#e10098"/>
                <rect x="5.454" y="9.386" width="1.187" height="13.228" style="fill:#e10098"/>
                <rect x="25.36" y="9.386" width="1.187" height="13.228" style="fill:#e10098"/>
                <rect x="15.222" y="24.097" width="11.504" height="1.037"
                      transform="translate(-9.498 13.785) rotate(-30.001)" style="fill:#e10098"/>
                <path d="M28.12,23a2.5,2.5,0,1,1-.915-3.411A2.5,2.5,0,0,1,28.12,23" style="fill:#e10098"/>
                <path d="M8.2,11.5a2.5,2.5,0,1,1-.915-3.411A2.5,2.5,0,0,1,8.2,11.5" style="fill:#e10098"/>
                <path d="M3.88,23a2.5,2.5,0,1,1,3.411.915A2.5,2.5,0,0,1,3.88,23" style="fill:#e10098"/>
                <path d="M23.8,11.5a2.5,2.5,0,1,1,3.411.915A2.5,2.5,0,0,1,23.8,11.5" style="fill:#e10098"/>
                <path d="M16,30a2.5,2.5,0,1,1,2.5-2.5A2.493,2.493,0,0,1,16,30" style="fill:#e10098"/>
                <path d="M16,6.991a2.5,2.5,0,1,1,2.5-2.5,2.493,2.493,0,0,1-2.5,2.5" style="fill:#e10098"/>
            </g>
        </svg>
    </g>

    <g id="NextJS">
        <svg fill="#000000" viewBox="0 0 32 32" xmlns="http://www.w3.org/2000/svg">
            <g id="SVGRepo_bgCarrier" stroke-width="0"/>
            <g id="SVGRepo_tracerCarrier" stroke-linecap="round" stroke-linejoin="round"/>
            <g id="SVGRepo_iconCarrier">
                <path d="M23.749 30.005c-0.119 0.063-0.109 0.083 0.005 0.025 0.037-0.015 0.068-0.036 0.095-0.061 0-0.021 0-0.021-0.1 0.036zM23.989 29.875c-0.057 0.047-0.057 0.047 0.011 0.016 0.036-0.021 0.068-0.041 0.068-0.047 0-0.027-0.016-0.021-0.079 0.031zM24.145 29.781c-0.057 0.047-0.057 0.047 0.011 0.016 0.037-0.021 0.068-0.043 0.068-0.048 0-0.025-0.016-0.020-0.079 0.032zM24.303 29.688c-0.057 0.047-0.057 0.047 0.009 0.015 0.037-0.020 0.068-0.041 0.068-0.047 0-0.025-0.016-0.020-0.077 0.032zM24.516 29.547c-0.109 0.073-0.147 0.12-0.047 0.068 0.067-0.041 0.181-0.131 0.161-0.131-0.043 0.016-0.079 0.043-0.115 0.063zM14.953 0.011c-0.073 0.005-0.292 0.025-0.484 0.041-4.548 0.412-8.803 2.86-11.5 6.631-1.491 2.067-2.459 4.468-2.824 6.989-0.129 0.88-0.145 1.14-0.145 2.333 0 1.192 0.016 1.448 0.145 2.328 0.871 6.011 5.147 11.057 10.943 12.927 1.043 0.333 2.136 0.563 3.381 0.704 0.484 0.052 2.577 0.052 3.061 0 2.152-0.24 3.969-0.771 5.767-1.688 0.276-0.14 0.328-0.177 0.291-0.208-0.88-1.161-1.744-2.323-2.609-3.495l-2.557-3.453-3.203-4.745c-1.068-1.588-2.14-3.172-3.229-4.744-0.011 0-0.025 2.109-0.031 4.681-0.011 4.505-0.011 4.688-0.068 4.792-0.057 0.125-0.151 0.229-0.276 0.287-0.099 0.047-0.188 0.057-0.661 0.057h-0.541l-0.141-0.088c-0.088-0.057-0.161-0.136-0.208-0.229l-0.068-0.141 0.005-6.271 0.011-6.271 0.099-0.125c0.063-0.077 0.141-0.14 0.229-0.187 0.131-0.063 0.183-0.073 0.724-0.073 0.635 0 0.74 0.025 0.907 0.208 1.296 1.932 2.588 3.869 3.859 5.812 2.079 3.152 4.917 7.453 6.312 9.563l2.537 3.839 0.125-0.083c1.219-0.813 2.328-1.781 3.285-2.885 2.016-2.308 3.324-5.147 3.767-8.177 0.129-0.88 0.145-1.141 0.145-2.333 0-1.193-0.016-1.448-0.145-2.328-0.871-6.011-5.147-11.057-10.943-12.928-1.084-0.343-2.199-0.577-3.328-0.697-0.303-0.031-2.371-0.068-2.631-0.041zM21.5 9.688c0.151 0.072 0.265 0.208 0.317 0.364 0.027 0.084 0.032 1.823 0.027 5.74l-0.011 5.624-0.989-1.52-0.995-1.521v-4.083c0-2.647 0.011-4.131 0.025-4.204 0.047-0.167 0.161-0.307 0.313-0.395 0.124-0.063 0.172-0.068 0.667-0.068 0.463 0 0.541 0.005 0.645 0.063z"/>
            </g>
        </svg>
    </g>

    <g id="JS">
        <path d="M2.25476 0H117.745V120H2.25476V0Z" fill="#F7DF1E"/>
        <path d="M32.6199 100.28L41.4581 94.7229C43.1631 97.8641 44.7142 100.522 48.4346 100.522C52.0009 100.522 54.2493 99.0723 54.2493 93.4342V55.0913H65.1024V93.5936C65.1024 105.274 58.5132 110.59 48.8999 110.59C40.2177 110.59 35.178 105.918 32.6198 100.28"
              fill="black"/>
        <path d="M70.9998 99.0724L79.8368 93.756C82.1631 97.7035 85.1866 100.603 90.5354 100.603C95.0324 100.603 97.9 98.2669 97.9 95.0448C97.9 91.1783 94.9543 89.8088 89.9926 87.5541L87.2801 86.345C79.4496 82.8819 74.2553 78.5322 74.2553 69.3492C74.2553 60.8913 80.4571 54.4469 90.1481 54.4469C97.0478 54.4469 102.009 56.9442 105.575 63.469L97.1248 69.1073C95.2641 65.6438 93.2491 64.2747 90.1483 64.2747C86.9697 64.2747 84.9539 66.369 84.9539 69.1073C84.9539 72.4905 86.9697 73.8602 91.6207 75.9547L94.3338 77.1629C103.559 81.2713 108.754 85.4595 108.754 94.8836C108.754 105.034 101.079 110.591 90.7682 110.591C80.6901 110.591 74.1779 105.597 70.9999 99.0724"
              fill="black"/>
    </g>

    <g id="TS">
        <svg xmlns="http://www.w3.org/2000/svg" aria-label="TypeScript" role="img" viewBox="0 0 512 512" fill="#000000">
            <g id="SVGRepo_bgCarrier" stroke-width="0"/>
            <g id="SVGRepo_tracerCarrier" stroke-linecap="round" stroke-linejoin="round"/>
            <g id="SVGRepo_iconCarrier">
                <rect width="512" height="512" rx="15%" fill="#3178c6"/>
                <path fill="#ffffff"
                      d="m233 284h64v-41H118v41h64v183h51zm84 173c8.1 4.2 18 7.3 29 9.4s23 3.1 35 3.1c12 0 23-1.1 34-3.4c11-2.3 20-6.1 28-11c8.1-5.3 15-12 19-21s7.1-19 7.1-32c0-9.1-1.4-17-4.1-24s-6.6-13-12-18c-5.1-5.3-11-10-18-14s-15-8.2-24-12c-6.6-2.7-12-5.3-18-7.9c-5.2-2.6-9.7-5.2-13-7.8c-3.7-2.7-6.5-5.5-8.5-8.4c-2-3-3-6.3-3-10c0-3.4.89-6.5 2.7-9.3s4.3-5.1 7.5-7.1c3.2-2 7.2-3.5 12-4.6c4.7-1.1 9.9-1.6 16-1.6c4.2 0 8.6.31 13 .94c4.6.63 9.3 1.6 14 2.9c4.7 1.3 9.3 2.9 14 4.9c4.4 2 8.5 4.3 12 6.9v-47c-7.6-2.9-16-5.1-25-6.5s-19-2.1-31-2.1c-12 0-23 1.3-34 3.8s-20 6.5-28 12c-8.1 5.4-14 12-19 21c-4.7 8.4-7 18-7 30c0 15 4.3 28 13 38c8.6 11 22 19 39 27c6.9 2.8 13 5.6 19 8.3s11 5.5 15 8.4c4.3 2.9 7.7 6.1 10 9.5c2.5 3.4 3.8 7.4 3.8 12c0 3.2-.78 6.2-2.3 9s-3.9 5.2-7.1 7.2s-7.1 3.6-12 4.8c-4.7 1.1-10 1.7-17 1.7c-11 0-22-1.9-32-5.7c-11-3.8-21-9.5-28.1-15.44z"/>
            </g>
        </svg>
    </g>

    <g id='Redux'>
        <path d="M72.7792 69.5627C76.6509 69.1619 79.5882 65.8242 79.4546 61.8184C79.3214 57.8131 75.9833 54.6086 71.9779 54.6086H71.7111C67.5718 54.7422 64.3677 58.2135 64.5013 62.3525C64.6349 64.3553 65.4357 66.091 66.6374 67.2926C62.098 76.2385 55.1554 82.7807 44.7415 88.2549C37.6652 91.9934 30.3222 93.3287 22.9792 92.3943C16.971 91.593 12.298 88.923 9.3603 84.5164C5.08817 77.9742 4.68776 70.8975 8.29268 63.8213C10.8296 58.7475 14.8345 55.009 17.3714 53.1398C16.8374 51.4041 16.0361 48.4668 15.6357 46.3307C-3.72371 60.35 -1.72084 79.3094 4.15375 88.2549C8.55949 94.9311 17.505 99.0701 27.3849 99.0701C30.055 99.0701 32.7251 98.8029 35.3955 98.1357C52.4853 94.7975 65.4361 84.65 72.7792 69.5627ZM96.2775 53.0066C86.1304 41.1234 71.1771 34.5811 54.0873 34.5811H51.9513C50.7496 32.1779 48.2128 30.5754 45.4091 30.5754H45.1419C41.0033 30.709 37.7992 34.1803 37.9324 38.3197C38.066 42.325 41.4037 45.5295 45.4091 45.5295H45.6759C48.6132 45.3959 51.1501 43.5266 52.2181 40.9898H54.6214C64.7685 40.9898 74.3812 43.927 83.0599 49.6684C89.7353 54.0746 94.5419 59.816 97.2119 66.7586C99.4816 72.3664 99.348 77.8406 96.9447 82.5139C93.2066 89.5902 86.9316 93.4623 78.6537 93.4623C73.3132 93.4623 68.2398 91.8598 65.5693 90.6582C64.1009 91.9934 61.4304 94.1295 59.5611 95.4652C65.3025 98.1352 71.1771 99.6041 76.7845 99.6041C89.6017 99.6041 99.0812 92.5275 102.686 85.4512C106.558 77.707 106.291 64.3553 96.2775 53.0066ZM28.4529 71.832C28.5865 75.8377 31.9242 79.0418 35.9296 79.0418H36.1968C40.3357 78.9086 43.5398 75.4369 43.4062 71.2979C43.273 67.2922 39.9349 64.0881 35.9296 64.0881H35.6628C35.3955 64.0881 34.9947 64.0881 34.7283 64.2213C29.2542 55.1422 26.9845 45.2623 27.7857 34.5807C28.3193 26.5697 30.9898 19.6266 35.6628 13.8852C39.5345 8.94508 47.0111 6.5418 52.0849 6.40861C66.2369 6.14139 72.2447 23.7656 72.6455 30.8422C74.3812 31.2426 77.3185 32.1775 79.3214 32.8451C77.7189 11.2156 64.3677 0 51.5509 0C39.5345 0 28.4529 8.67869 24.0468 21.4963C17.9054 38.5865 21.9107 55.009 29.3874 67.9602C28.7201 68.8947 28.3193 70.3635 28.4529 71.8324V71.832Z"
              fill="#764ABC"/>

    </g>

    <g id="API">
        <svg version="1.1" baseProfile="tiny" id="Layer_1" xmlns="http://www.w3.org/2000/svg"
             xmlns:xlink="http://www.w3.org/1999/xlink" viewBox="0 0 24 24" overflow="visible" xml:space="preserve"
             fill="#000000"><g id="SVGRepo_bgCarrier" stroke-width="0"/>
            <g id="SVGRepo_tracerCarrier" stroke-linecap="round" stroke-linejoin="round"/>
            <g id="SVGRepo_iconCarrier"> <g> <rect y="0" fill="none" width="24" height="24"/>
                <g transform="translate(1.000000, 8.000000)"> <path fill-rule="evenodd" fill="#5C85DE"
                                                                    d="M2-1.9c-1.1,0-2.3,1.1-2.3,2.2V10H2V5.5h2.2V10h2.2V0.3c0-1.1-1.1-2.2-2.3-2.2H2 L2-1.9z M2,3.2v-3h2.2v3H2L2,3.2z"/>
                    <path fill-rule="evenodd" fill="#5C85DE"
                          d="M10.3-2C9.1-2,8-0.9,8,0.2V10l2.2,0V5.5h2.2c1.1,0,2.3-1.1,2.3-2.2l0-3 c0-1.1-1.1-2.2-2.3-2.2H10.3L10.3-2z M10.2,3.2v-3h2.2v3H10.2L10.2,3.2z"/>
                    <polygon fill-rule="evenodd" fill="#5C85DE"
                             points="18.5,0.3 18.5,7.8 16.2,7.8 16.2,10 23,10 23,7.8 20.8,7.8 20.8,0.3 23,0.3 23,-1.9 16.2,-1.9 16.2,0.3 "/>
                    <polygon fill-rule="evenodd" fill="#3367D6" points="2,5.5 2,3.2 3.5,3.2 "/>
                    <polygon fill-rule="evenodd" fill="#3367D6" points="10.2,5.5 10.2,3.2 11.5,3.2 "/>
                    <polygon fill-rule="evenodd" fill="#3367D6" points="18.5,1.8 18.5,1.8 18.5,0.3 20.8,0.3 "/> </g> </g> </g></svg>
    </g>

    <g id="Test">
        <svg viewBox="0 0 32 32" xmlns="http://www.w3.org/2000/svg" fill="#000000">
            <g id="SVGRepo_bgCarrier" stroke-width="0"/>
            <g id="SVGRepo_tracerCarrier" stroke-linecap="round" stroke-linejoin="round"/>
            <g id="SVGRepo_iconCarrier">
                <title>file_type_jest</title>
                <path d="M27.089,15.786a2.606,2.606,0,0,0-2.606-2.606,2.633,2.633,0,0,0-.274.014l3.58-10.558H12.576l3.575,10.549c-.052,0-.105-.005-.158-.005a2.606,2.606,0,0,0-.791,5.09,11.383,11.383,0,0,1-2.049,2.579A10.436,10.436,0,0,1,9.5,23.116a3.323,3.323,0,0,1-1.665-4.23c.077-.18.155-.362.229-.544a2.607,2.607,0,1,0-2.09-.4,20.134,20.134,0,0,0-1.889,4.787c-.354,2.135,0,4.4,1.845,5.681,4.3,2.981,8.969-1.848,13.891-3.061,1.784-.44,3.742-.369,5.313-1.279a4.45,4.45,0,0,0,2.179-3.088,4.639,4.639,0,0,0-.831-3.522,2.6,2.6,0,0,0,.606-1.671ZM18.6,15.8v-.009a2.6,2.6,0,0,0-1.256-2.23L20.188,7.8l2.85,5.814a2.6,2.6,0,0,0-1.161,2.169c0,.019,0,.038,0,.057L18.6,15.8Z"
                      style="fill:#c63d14"/>
                <path d="M27.726,15.786A3.247,3.247,0,0,0,25.083,12.6L28.677,2H11.689l3.6,10.621a3.241,3.241,0,0,0-1,5.918,10.865,10.865,0,0,1-1.568,1.846,9.827,9.827,0,0,1-3.16,2.03,2.656,2.656,0,0,1-1.134-3.28l.04-.093.074-.175a3.245,3.245,0,1,0-3.34-.754c-.108.231-.222.465-.339.706a14,14,0,0,0-1.4,3.8c-.465,2.8.285,5.043,2.111,6.308A5.751,5.751,0,0,0,8.934,30c2.132,0,4.289-1.071,6.4-2.119a23.672,23.672,0,0,1,4.642-1.918c.577-.142,1.171-.228,1.8-.319a9.977,9.977,0,0,0,3.68-1.028,5.09,5.09,0,0,0,2.487-3.53,5.255,5.255,0,0,0-.691-3.613,3.223,3.223,0,0,0,.475-1.688Zm-1.273,0a1.97,1.97,0,1,1-1.97-1.97,1.972,1.972,0,0,1,1.97,1.97ZM26.9,3.273l-3.174,9.36a3.2,3.2,0,0,0-.4.125l-3.135-6.4L17.046,12.72a3.2,3.2,0,0,0-.419-.114L13.464,3.273ZM15.993,13.816a1.97,1.97,0,1,1-1.97,1.97,1.972,1.972,0,0,1,1.97-1.97Zm-8.522.019A1.97,1.97,0,1,1,5.5,15.8a1.972,1.972,0,0,1,1.97-1.97Zm19.217,7.034a3.82,3.82,0,0,1-1.871,2.646,8.9,8.9,0,0,1-3.223.869c-.632.091-1.285.185-1.924.343a24.587,24.587,0,0,0-4.9,2.013c-3.164,1.571-5.9,2.928-8.472,1.143-1.887-1.308-1.8-3.728-1.58-5.054A12.82,12.82,0,0,1,6,19.376c.092-.189.182-.375.27-.559a3.215,3.215,0,0,0,.838.21,3.965,3.965,0,0,0,2.1,4.655l.245.126.259-.092a11.029,11.029,0,0,0,3.875-2.4,12.078,12.078,0,0,0,1.918-2.319,3.241,3.241,0,0,0,2.64-5.627l2.038-4.121,2.059,4.2a3.24,3.24,0,0,0,4.088,5,3.957,3.957,0,0,1,.355,2.422Z"
                      style="fill:#fff"/>
            </g>
        </svg>
    </g>

    <g id="Storybook">
        <svg viewBox="-31.5 0 319 319" version="1.1" xmlns="http://www.w3.org/2000/svg"
             xmlns:xlink="http://www.w3.org/1999/xlink" preserveAspectRatio="xMidYMid" fill="#000000">
            <g id="SVGRepo_bgCarrier" stroke-width="0"/>
            <g id="SVGRepo_tracerCarrier" stroke-linecap="round" stroke-linejoin="round"/>
            <g id="SVGRepo_iconCarrier">
                <defs>
                    <path d="M9.87245893,293.324145 L0.0114611411,30.5732167 C-0.314208957,21.8955842 6.33948896,14.5413918 15.0063196,13.9997149 L238.494389,0.0317105427 C247.316188,-0.519651867 254.914637,6.18486163 255.466,15.0066607 C255.486773,15.339032 255.497167,15.6719708 255.497167,16.0049907 L255.497167,302.318596 C255.497167,311.157608 248.331732,318.323043 239.492719,318.323043 C239.253266,318.323043 239.013844,318.317669 238.774632,318.306926 L25.1475605,308.712253 C16.8276309,308.338578 10.1847994,301.646603 9.87245893,293.324145 L9.87245893,293.324145 Z"
                          id="path-1"/>
                </defs>
                <g>
                    <mask id="mask-2" fill="white">
                        <use xlink:href="#path-1"/>
                    </mask>
                    <use fill="#FF4785" fill-rule="nonzero" xlink:href="#path-1"/>
                    <path d="M188.665358,39.126973 L190.191903,2.41148534 L220.883535,0 L222.205755,37.8634126 C222.251771,39.1811466 221.22084,40.2866846 219.903106,40.3327009 C219.338869,40.3524045 218.785907,40.1715096 218.342409,39.8221376 L206.506729,30.4984116 L192.493574,41.1282444 C191.443077,41.9251106 189.945493,41.7195021 189.148627,40.6690048 C188.813185,40.2267976 188.6423,39.6815326 188.665358,39.126973 Z M149.413703,119.980309 C149.413703,126.206975 191.355678,123.222696 196.986019,118.848893 C196.986019,76.4467826 174.234041,54.1651411 132.57133,54.1651411 C90.9086182,54.1651411 67.5656805,76.7934542 67.5656805,110.735941 C67.5656805,169.85244 147.345341,170.983856 147.345341,203.229219 C147.345341,212.280549 142.913138,217.654777 133.162291,217.654777 C120.456641,217.654777 115.433477,211.165914 116.024438,189.103298 C116.024438,184.317101 67.5656805,182.824962 66.0882793,189.103298 C62.3262146,242.56887 95.6363019,257.990394 133.753251,257.990394 C170.688279,257.990394 199.645341,238.303123 199.645341,202.663511 C199.645341,139.304202 118.683759,141.001326 118.683759,109.604526 C118.683759,96.8760922 128.139127,95.178968 133.753251,95.178968 C139.662855,95.178968 150.300143,96.2205679 149.413703,119.980309 Z"
                          fill="#FFFFFF" fill-rule="nonzero" mask="url(#mask-2)"/>
                </g>
            </g>
        </svg>
    </g>

    <g id="HTML">
        <path d="M22.1325 102.004L13.7063 7.5H106.294L97.8563 101.989L59.9438 112.5L22.1325 102.004Z" fill="#E44F26"/>
        <path d="M60 104.468L90.6375 95.9738L97.845 15.2288H60V104.468Z" fill="#F1662A"/>
        <path d="M60 50.2763H44.6625L43.605 38.4075H60V26.8163H30.9375L31.215 29.9288L34.0613 61.8675H60V50.2763ZM60 80.3775L59.9475 80.3925L47.04 76.9088L46.215 67.665H34.5787L36.2025 85.86L59.9475 92.4525L60 92.4375V80.3775Z"
              fill="#EBEBEB"/>
        <path d="M59.9587 50.2763V61.8675H74.2312L72.8887 76.9013L59.9587 80.3888V92.4488L83.7225 85.86L83.895 83.9025L86.6175 53.3888L86.9025 50.2763H59.9587ZM59.9587 26.8163V38.4075H87.9562L88.1887 35.805L88.7175 29.9288L88.995 26.8163H59.9587Z"
              fill="white"/>
    </g>

    <g id="CSS">
        <path d="M22.1325 101.154L13.71 7.4375H106.29L97.8562 101.139L59.9437 111.562L22.1325 101.154Z" fill="#1572B6"/>
        <path d="M60 103.597L90.6375 95.1739L97.845 15.1018H60V103.597Z" fill="#33A9DC"/>
        <path d="M60 49.054H75.3375L76.395 37.2842H60V25.7896H89.0625L88.785 28.8724L85.9387 60.5487H60V49.054Z"
              fill="white"/>
        <path d="M60.0713 78.9045L60.0188 78.9193L47.1113 75.4609L46.2863 66.2942H34.65L36.2738 84.3413L60.015 90.8788L60.0713 90.864V78.9045Z"
              fill="#EBEBEB"/>
        <path d="M74.3513 60.0615L72.9563 75.4534L60.03 78.9119V90.8714L83.79 84.3412L83.9663 82.4001L85.98 60.0615H74.3513Z"
              fill="white"/>
        <path d="M60.0413 25.7896V37.2842H32.0438L31.8113 34.6997L31.2825 28.8724L31.005 25.7896H60.0413ZM60 49.054V60.5487H47.2538L47.0213 57.9642L46.4963 52.1369L46.2188 49.054H60Z"
              fill="#EBEBEB"/>
    </g>

    <g id="Sass">
        <g clip-path="url(#clip0_2_5872)">
            <path d="M100.673 50.0767C96.603 50.0975 93.0653 51.0695 90.1035 52.5064C89.0162 50.3721 87.9295 48.4708 87.738 47.0761C87.5246 45.4494 87.2691 44.4561 87.5246 42.5122C87.7805 40.5683 88.9312 37.8002 88.9098 37.589C88.8887 37.3779 88.6538 36.3846 86.3098 36.3638C83.9658 36.3425 81.9413 36.8074 81.7068 37.42C81.4724 38.0326 81.025 39.4274 80.7266 40.8638C80.3216 42.9771 76.0386 50.5199 73.5881 54.4711C72.7993 52.9291 72.1174 51.5765 71.968 50.499C71.755 48.8723 71.4991 47.879 71.755 45.9351C72.0109 43.9912 73.1617 41.2235 73.1402 41.0119C73.1187 40.8008 72.8843 39.8075 70.5403 39.7867C68.1958 39.7654 66.1713 40.2303 65.9373 40.8429C65.7029 41.456 65.4469 42.8924 64.957 44.2871C64.4667 45.6818 58.7769 58.2751 57.2852 61.5285C56.6824 62.8454 56.0501 64.1487 55.3886 65.4376C55.3886 65.4376 55.3672 65.5011 55.3032 65.6067C55.0954 66.0108 54.8824 66.4123 54.6643 66.8111V66.8319C54.3444 67.4028 54.0035 67.9307 53.833 67.9307C53.705 67.9307 53.4706 66.4096 53.8755 64.3388C54.7278 59.9652 56.7524 53.1616 56.7313 52.9291C56.7313 52.8022 57.1148 51.6191 55.4101 51.0061C53.7475 50.3934 53.1511 51.4075 53.0017 51.4075C52.8527 51.4075 52.7458 51.7669 52.7458 51.7669C52.7458 51.7669 54.6003 44.1181 49.2085 44.1181C45.8417 44.1181 41.1958 47.7735 38.8943 51.0695C36.278 52.4812 33.6639 53.8969 31.052 55.3166C29.7953 56.014 28.4951 56.7114 27.2803 57.3661C27.1949 57.2818 27.1099 57.1758 27.0244 57.0915C20.5034 50.1823 8.442 45.3012 8.95339 36.0257C9.14534 32.645 10.3171 23.7705 32.1178 12.9948C50.0608 4.22589 64.3392 6.65555 66.8111 12.0437C70.3484 19.735 59.1608 34.0184 40.6204 36.0887C33.5455 36.8708 29.8373 34.1661 28.9 33.152C27.9197 32.0953 27.7703 32.0319 27.4079 32.2435C26.8115 32.5607 27.1949 33.5114 27.4079 34.0605C27.9622 35.497 30.2422 38.0326 34.0994 39.2796C37.5091 40.378 45.7988 40.9911 55.8361 37.1454C67.0666 32.8348 75.8466 20.8547 73.2682 10.8184C70.6893 0.633969 53.641 -2.7255 37.5091 2.95805C27.9197 6.33927 17.52 11.6635 10.0402 18.594C1.15363 26.8341 -0.253039 33.9971 0.322334 36.9977C2.38984 47.6466 17.2006 54.5771 23.1248 59.7115C22.8263 59.8805 22.5489 60.0287 22.3149 60.1556C19.3526 61.6133 8.05811 67.4658 5.24523 73.6569C2.04891 80.6717 5.75708 85.7009 8.20756 86.3765C15.8154 88.4686 23.6362 84.7077 27.8342 78.4953C32.0323 72.2834 31.5209 64.2119 29.5818 60.5144C29.5604 60.4723 29.5393 60.4297 29.4964 60.3876C30.2637 59.9439 31.052 59.479 31.8194 59.0354C33.2296 58.2088 34.6578 57.4127 36.1029 56.6475C35.3781 58.6127 34.8452 60.958 34.5897 64.3388C34.2698 68.3114 35.9105 73.4666 38.063 75.4947C39.0223 76.3829 40.1515 76.4037 40.8763 76.4037C43.3908 76.4037 44.5205 74.3329 45.7778 71.882C47.3119 68.8818 48.6971 65.3955 48.6971 65.3955C48.6971 65.3955 46.971 74.8191 51.6595 74.8191C53.3641 74.8191 55.0902 72.6215 55.8575 71.5018V71.5227C55.8575 71.5227 55.9 71.4592 55.9855 71.3115C56.156 71.0369 56.2624 70.8674 56.2624 70.8674V70.8257C56.9443 69.6422 58.4789 66.9588 60.7589 62.5005C63.6998 56.7535 66.5342 49.5697 66.5342 49.5697C66.5342 49.5697 66.7901 51.3232 67.6634 54.2391C68.1753 55.9506 69.2401 57.831 70.0929 59.6481C69.411 60.5992 68.9846 61.1271 68.9846 61.1271L69.0061 61.1484C68.4518 61.8666 67.8554 62.6482 67.1945 63.4095C64.8716 66.1558 62.1016 69.3046 61.7178 70.2127C61.2699 71.2902 61.3768 72.0723 62.2296 72.7062C62.8475 73.1711 63.9553 73.2341 65.085 73.1711C67.1735 73.0229 68.6437 72.5159 69.3681 72.1992C70.4978 71.7977 71.819 71.1846 73.0548 70.2761C75.3352 68.6068 76.72 66.2193 76.5925 63.0714C76.5285 61.3387 75.9531 59.6059 75.2498 57.9787C75.4632 57.6833 75.6547 57.3874 75.8681 57.0915C79.4693 51.8724 82.2612 46.1463 82.2612 46.1463C82.2612 46.1463 82.5171 47.8999 83.3905 50.8162C83.8168 52.2952 84.6907 53.9011 85.4575 55.4644C82.0693 58.1904 79.9807 61.3595 79.2349 63.4303C77.8926 67.276 78.9365 69.0083 80.9185 69.4097C81.8133 69.6 83.092 69.1773 84.0298 68.7758C85.2231 68.3956 86.6297 67.7409 87.9724 66.7685C90.2529 65.0996 92.4474 62.7751 92.3195 59.6272C92.2555 58.1904 91.8721 56.7743 91.3392 55.4009C94.2161 54.2183 97.9242 53.563 102.655 54.1122C112.799 55.2953 114.802 61.5707 114.418 64.2124C114.035 66.8532 111.904 68.2901 111.201 68.7337C110.497 69.1777 110.263 69.3254 110.327 69.6422C110.412 70.1071 110.753 70.0862 111.35 70.0015C112.181 69.8538 116.678 67.8673 116.869 63.0075C117.189 56.7956 111.222 50.0133 100.673 50.0767ZM22.4214 76.2347C19.0542 79.8688 14.3662 81.2422 12.3417 80.0804C10.1681 78.8334 11.0204 73.4666 15.1545 69.6213C17.669 67.276 20.9083 65.0992 23.0608 63.7683C23.5507 63.4724 24.2755 63.0501 25.1493 62.5218C25.2983 62.437 25.3838 62.3949 25.3838 62.3949L25.8952 62.0777C27.4078 67.5714 25.9591 72.4103 22.4214 76.2347ZM46.9285 59.7115C45.7563 62.5431 43.3058 69.7904 41.8141 69.3889C40.5354 69.0509 39.7466 63.5572 41.5582 58.1269C42.4745 55.4009 44.4136 52.147 45.5433 50.8796C47.3759 48.851 49.4005 48.1745 49.8904 48.9992C50.5087 50.0767 47.6529 57.9366 46.9285 59.7115ZM67.152 69.3042C66.6617 69.5579 66.1932 69.7269 65.9798 69.6C65.8308 69.5153 66.1932 69.1773 66.1932 69.1773C66.1932 69.1773 68.7292 66.473 69.7305 65.2473C70.3063 64.5291 70.9877 63.684 71.7125 62.7329V63.0075C71.7125 66.2406 68.5583 68.4169 67.1516 69.3042H67.152ZM82.7511 65.7757C82.3887 65.5219 82.4527 64.6768 83.6674 62.0356C84.1363 61.0002 85.2441 59.2679 87.1411 57.5986C87.3541 58.2746 87.5035 58.9299 87.4821 59.5425C87.4606 63.6206 84.5202 65.1417 82.7511 65.7757Z"
                  fill="#CD6799"/>
        </g>
        <defs>
            <clipPath id="clip0_2_5872">
                <rect width="117" height="87" fill="white"/>
            </clipPath>
        </defs>
    </g>

    <g id="Tailwind">
        <path d="M36.8438 56.0844C40.6646 40.8011 50.2167 33.1594 65.5 33.1594C88.425 33.1594 91.2906 50.3532 102.753 53.2188C110.395 55.1292 117.081 52.2636 122.812 44.6219C118.992 59.9053 109.44 67.5469 94.1562 67.5469C71.2313 67.5469 68.3656 50.3532 56.9031 47.4875C49.2615 45.5771 42.575 48.4428 36.8438 56.0844ZM8.1875 90.4719C12.0083 75.1886 21.5604 67.5469 36.8438 67.5469C59.7687 67.5469 62.6344 84.7407 74.0969 87.6063C81.7385 89.5167 88.425 86.6511 94.1562 79.0094C90.3354 94.2928 80.7833 101.934 65.5 101.934C42.575 101.934 39.7094 84.7407 28.2469 81.875C20.6052 79.9646 13.9187 82.8303 8.1875 90.4719Z"
              fill="#44A8B3"/>
    </g>

    <g id="Git">
        <svg viewBox="0 0 32 32" fill="none" xmlns="http://www.w3.org/2000/svg">
            <g id="SVGRepo_bgCarrier" stroke-width="0"/>
            <g id="SVGRepo_tracerCarrier" stroke-linecap="round" stroke-linejoin="round"/>
            <g id="SVGRepo_iconCarrier">
                <path d="M2.58536 17.4132C1.80488 16.6327 1.80488 15.3673 2.58536 14.5868L14.5868 2.58536C15.3673 1.80488 16.6327 1.80488 17.4132 2.58536L29.4146 14.5868C30.1951 15.3673 30.1951 16.6327 29.4146 17.4132L17.4132 29.4146C16.6327 30.1951 15.3673 30.1951 14.5868 29.4146L2.58536 17.4132Z"
                      fill="#EE513B"/>
                <path d="M12.1489 5.06152L10.9336 6.27686L14.0725 9.41577C13.9455 9.68819 13.8746 9.99201 13.8746 10.3124C13.8746 11.222 14.4461 11.9981 15.2496 12.3012V19.9798C14.4461 20.2829 13.8746 21.059 13.8746 21.9686C13.8746 23.1422 14.826 24.0936 15.9996 24.0936C17.1732 24.0936 18.1246 23.1422 18.1246 21.9686C18.1246 21.144 17.6549 20.429 16.9684 20.0768V12.3117L19.9689 15.3122C19.8481 15.5791 19.7809 15.8754 19.7809 16.1874C19.7809 17.361 20.7323 18.3124 21.9059 18.3124C23.0795 18.3124 24.0309 17.361 24.0309 16.1874C24.0309 15.0138 23.0795 14.0624 21.9059 14.0624C21.6778 14.0624 21.4582 14.0983 21.2522 14.1648L18.0297 10.9423C18.0914 10.7433 18.1246 10.5317 18.1246 10.3124C18.1246 9.13878 17.1732 8.18738 15.9996 8.18738C15.7803 8.18738 15.5688 8.22061 15.3697 8.2823L12.1489 5.06152Z"
                      fill="white"/>
            </g>
        </svg>
    </g>
</svg>
